<?xml version="1.0" encoding="utf-8"?>
<!-- Generator: Adobe Illustrator 22.1.0, SVG Export Plug-In . SVG Version: 6.00 Build 0)  -->
<svg version="1.1" xmlns="http://www.w3.org/2000/svg" xmlns:xlink="http://www.w3.org/1999/xlink" x="0px" y="0px"
	 viewBox="0 0 1920 1080" style="enable-background:new 0 0 1920 1080;" xml:space="preserve">
<style type="text/css">
	.st0{fill:none;stroke:#000000;stroke-width:4;stroke-miterlimit:10;}
	.st1{display:none;}
	.st2{display:inline;fill:none;stroke:#000000;stroke-width:4;stroke-miterlimit:10;}
</style>
<g id="Guides">
</g>
<g id="_x31_">
	<polyline class="st0" points="170,137 242,24 242,560 	"/>
</g>
<g id="_x32_" class="st1">
	<path class="st2" d="M68,98c0,0,71-74,183-74s195,49,192,136C370,245,68,560,68,560h376"/>
</g>
<g id="_x33_" class="st1">
	<path class="st2" d="M69,513.4c0,0,60,74,187.6,74.3S445,526,445.6,448.1C446.2,370.3,269,306,257.7,305.7
		c13.3,0.3,187.5-64.6,186.9-142.4C444,85.4,383.1,23.4,255.6,23.7C128,24,68,98,68,98"/>
</g>
<g id="_x34_" class="st1">
	<polyline class="st2" points="331,588 331,24 83,306 420,306 	"/>
</g>
<g id="_x35_" class="st1">
	<path class="st2" d="M445,24H72c0,0,13,94,13,144s-3,129-3,129s364-59,364,151c-1,114-104,140-195,140c-114,0-183-75-183-75"/>
</g>
<g id="_x36_" class="st1">
	<path class="st2" d="M88,403c0-139,104-166,167-166c103.3,0,167,62.7,167,166s-63.7,185-167,185S88,506.3,88,403
		c0,0-10-380,167-380"/>
</g>
<g id="_x37_" class="st1">
	<path class="st2" d="M88,68L67,23c0,0,322,0,378,0c-58,54.1-125.5,174.7-159.7,310.8C251,470,247,588,247,588"/>
</g>
<g id="_x38_">
	<path class="st0" d="M254,234c129,0,178,86,178,151c0,96.6-78.4,175-175,175S82,481.6,82,385C82,319.8,134,234,254,234
		c77,3,126-41,126-87.5C380,78.8,325.2,24,257.5,24S135,78.8,135,146.5C135,197,170,234,254,234z"/>
</g>
<g id="_x39_" class="st1">
	<path class="st2" d="M421.9,208c0,139-104,166-167,166c-103.3,0-167-62.7-167-166s63.7-185,167-185S421.9,104.7,421.9,208
		c0,0,10,380-167,380"/>
</g>
<g id="_x30_">
	<path class="st0" d="M281.5,560h-48C177.1,560,131,513.9,131,457.5v-332C131,69.1,177.1,23,233.5,23h48
		C337.9,23,384,69.1,384,125.5v332C384,513.9,337.9,560,281.5,560z"/>
</g>
</svg>
